<svg width="52" height="40" viewBox="0 0 52 40" fill="none" xmlns="http://www.w3.org/2000/svg">
<path fill-rule="evenodd" clip-rule="evenodd" d="M46.0754 14.4885C46.0168 14.0207 45.9528 13.5535 45.8836 13.087L45.7298 12.0502C45.1891 8.40509 42.2936 5.72687 38.8992 5.7322L19.6215 5.76242C18.9022 2.9969 16.5625 0.972232 13.7905 0.976578L8.348 0.98511C4.82628 0.990631 1.86442 3.85756 1.4505 7.66153L0.812535 13.5244C0.127367 19.8211 0.316736 26.1944 1.37429 32.4304C1.94006 35.7665 4.50979 38.2639 7.62091 38.5011L11.2171 38.7752C19.4492 39.4029 27.7118 39.3899 35.9419 38.7365L39.8314 38.4277C41.7515 38.2752 43.4502 37.2114 44.543 35.6123C45.998 34.0894 47.1421 32.2302 47.8809 30.1535L50.8353 21.849C52.0972 18.3019 49.687 14.4828 46.19 14.4883L46.0754 14.4885ZM8.35407 4.86011C6.63559 4.8628 5.19029 6.26177 4.98831 8.11799L4.35034 13.9809C3.70716 19.8918 3.88492 25.8745 4.87768 31.7284C5.14862 33.326 6.37921 34.5219 7.86907 34.6355L8.07336 34.6511L13.5876 19.079C14.5571 16.3414 16.9741 14.5341 19.6714 14.5299L42.4784 14.4941C42.443 14.2303 42.4057 13.9667 42.3666 13.7033L42.2128 12.6665C41.951 10.9015 40.5489 9.60462 38.9053 9.60719L18.2123 9.63963C17.1507 9.6413 16.2886 8.70654 16.2868 7.55182C16.2845 6.05836 15.1695 4.84942 13.7965 4.85157L8.35407 4.86011Z" fill="white"/>
</svg>
